HIERARCHY
ROOT Hips
{
  OFFSET 5.80788e-005 67.184 3.4734
  CHANNELS 6 Xposition Yposition Zposition Zrotation Xrotation Yrotation
  JOINT Chest
  {
    OFFSET 0 8.7983 -4.7612
    CHANNELS 3 Zrotation Xrotation Yrotation
    JOINT Chest2
    {
      OFFSET 0 8.0291 0.4195
      CHANNELS 3 Zrotation Xrotation Yrotation
      JOINT Chest3
      {
        OFFSET 0 9.9351 -2.2114
        CHANNELS 3 Zrotation Xrotation Yrotation
        JOINT Neck
        {
          OFFSET 0 22.3885 -0.4656
          CHANNELS 3 Zrotation Xrotation Yrotation
          JOINT Head
          {
            OFFSET -0.0001 12.643 3.4389
            CHANNELS 3 Zrotation Xrotation Yrotation
            End Site
            {
              OFFSET 0.0001 17.6655 0.5274
            }
          }
        }
        JOINT LeftCollar
        {
          OFFSET 2.2603 21.606 7.4023
          CHANNELS 3 Zrotation Xrotation Yrotation
          JOINT LeftShoulder
          {
            OFFSET 13.5163 -1.1332 -5.0146
            CHANNELS 3 Zrotation Xrotation Yrotation
            JOINT LeftElbow
            {
              OFFSET -0.0995 -28.05 -0.2431
              CHANNELS 3 Zrotation Xrotation Yrotation
              JOINT LeftWrist
              {
                OFFSET 0.0679 -23.3996 -0.1402
                CHANNELS 3 Zrotation Xrotation Yrotation
                JOINT LeftFinger1
                {
                  OFFSET 0.7932 -9.069 2.5189
                  CHANNELS 3 Zrotation Xrotation Yrotation
                  JOINT LeftFinger11
                  {
                    OFFSET -0.8272 -3.3923 0.5977
                    CHANNELS 3 Zrotation Xrotation Yrotation
                    JOINT LeftFinger12
                    {
                      OFFSET -0.5649 -2.3158 0.4082
                      CHANNELS 3 Zrotation Xrotation Yrotation
                      End Site
                      {
                        OFFSET -0.4919 -1.6479 0.2673
                      }
                    }
                  }
                }
                JOINT LeftFinger2
                {
                  OFFSET 0.9159 -9.2044 0.2193
                  CHANNELS 3 Zrotation Xrotation Yrotation
                  JOINT LeftFinger21
                  {
                    OFFSET 0.0117 -4.1944 -0.0248
                    CHANNELS 3 Zrotation Xrotation Yrotation
                    JOINT LeftFinger22
                    {
                      OFFSET 0.0071 -2.3249 -0.0142
                      CHANNELS 3 Zrotation Xrotation Yrotation
                      End Site
                      {
                        OFFSET -0.1475 -2.0882 0.0028
                      }
                    }
                  }
                }
                JOINT LeftFinger3
                {
                  OFFSET 0.6113 -8.7231 -2.0637
                  CHANNELS 3 Zrotation Xrotation Yrotation
                  JOINT LeftFinger31
                  {
                    OFFSET -0.1927 -3.8059 -0.2383
                    CHANNELS 3 Zrotation Xrotation Yrotation
                    JOINT LeftFinger32
                    {
                      OFFSET -0.1091 -2.1688 -0.1362
                      CHANNELS 3 Zrotation Xrotation Yrotation
                      End Site
                      {
                        OFFSET -0.2358 -1.9176 -0.0906
                      }
                    }
                  }
                }
                JOINT LeftFinger4
                {
                  OFFSET -0.6151 -8.0947 -3.5641
                  CHANNELS 3 Zrotation Xrotation Yrotation
                  JOINT LeftFinger41
                  {
                    OFFSET -0.4882 -2.341 -0.6462
                    CHANNELS 3 Zrotation Xrotation Yrotation
                    JOINT LeftFinger42
                    {
                      OFFSET -0.3575 -1.7167 -0.4742
                      CHANNELS 3 Zrotation Xrotation Yrotation
                      End Site
                      {
                        OFFSET -0.4187 -1.5237 -0.3496
                      }
                    }
                  }
                }
                JOINT LeftFinger0
                {
                  OFFSET -1.42 -1.8761 1.4223
                  CHANNELS 3 Zrotation Xrotation Yrotation
                  JOINT LeftFinger01
                  {
                    OFFSET -1.1471 -3.4929 2.6334
                    CHANNELS 3 Zrotation Xrotation Yrotation
                    JOINT LeftFinger02
                    {
                      OFFSET -0.823 -2.3 1.6571
                      CHANNELS 3 Zrotation Xrotation Yrotation
                      End Site
                      {
                        OFFSET -0.5822 -1.6914 1.1582
                      }
                    }
                  }
                }
              }
            }
          }
        }
        JOINT RightCollar
        {
          OFFSET -2.2603 21.606 7.4023
          CHANNELS 3 Zrotation Xrotation Yrotation
          JOINT RightShoulder
          {
            OFFSET -13.5187 -1.1334 -5.0155
            CHANNELS 3 Zrotation Xrotation Yrotation
            JOINT RightElbow
            {
              OFFSET 0.0994 -28.0499 -0.2431
              CHANNELS 3 Zrotation Xrotation Yrotation
              JOINT RightWrist
              {
                OFFSET -0.0679 -23.3996 -0.1402
                CHANNELS 3 Zrotation Xrotation Yrotation
                JOINT RightFinger1
                {
                  OFFSET -0.7932 -9.0691 2.5189
                  CHANNELS 3 Zrotation Xrotation Yrotation
                  JOINT RightFinger11
                  {
                    OFFSET 0.8272 -3.3923 0.5977
                    CHANNELS 3 Zrotation Xrotation Yrotation
                    JOINT RightFinger12
                    {
                      OFFSET 0.565 -2.3158 0.4082
                      CHANNELS 3 Zrotation Xrotation Yrotation
                      End Site
                      {
                        OFFSET 0.4919 -1.6479 0.2673
                      }
                    }
                  }
                }
                JOINT RightFinger2
                {
                  OFFSET -0.916 -9.2044 0.2193
                  CHANNELS 3 Zrotation Xrotation Yrotation
                  JOINT RightFinger21
                  {
                    OFFSET -0.0117 -4.1944 -0.0248
                    CHANNELS 3 Zrotation Xrotation Yrotation
                    JOINT RightFinger22
                    {
                      OFFSET -0.0071 -2.3249 -0.0142
                      CHANNELS 3 Zrotation Xrotation Yrotation
                      End Site
                      {
                        OFFSET 0.1475 -2.0882 0.0028
                      }
                    }
                  }
                }
                JOINT RightFinger3
                {
                  OFFSET -0.6113 -8.7231 -2.0637
                  CHANNELS 3 Zrotation Xrotation Yrotation
                  JOINT RightFinger31
                  {
                    OFFSET 0.1927 -3.8059 -0.2383
                    CHANNELS 3 Zrotation Xrotation Yrotation
                    JOINT RightFinger32
                    {
                      OFFSET 0.1091 -2.1688 -0.1362
                      CHANNELS 3 Zrotation Xrotation Yrotation
                      End Site
                      {
                        OFFSET 0.2358 -1.9176 -0.0906
                      }
                    }
                  }
                }
                JOINT RightFinger4
                {
                  OFFSET 0.6151 -8.0947 -3.564
                  CHANNELS 3 Zrotation Xrotation Yrotation
                  JOINT RightFinger41
                  {
                    OFFSET 0.4882 -2.341 -0.6462
                    CHANNELS 3 Zrotation Xrotation Yrotation
                    JOINT RightFinger42
                    {
                      OFFSET 0.3574 -1.7166 -0.4742
                      CHANNELS 3 Zrotation Xrotation Yrotation
                      End Site
                      {
                        OFFSET 0.4187 -1.5237 -0.3496
                      }
                    }
                  }
                }
                JOINT RightFinger0
                {
                  OFFSET 1.4199 -1.8761 1.4221
                  CHANNELS 3 Zrotation Xrotation Yrotation
                  JOINT RightFinger01
                  {
                    OFFSET 1.1472 -3.4929 2.6336
                    CHANNELS 3 Zrotation Xrotation Yrotation
                    JOINT RightFinger02
                    {
                      OFFSET 0.8229 -2.3 1.6571
                      CHANNELS 3 Zrotation Xrotation Yrotation
                      End Site
                      {
                        OFFSET 0.5822 -1.6914 1.1582
                      }
                    }
                  }
                }
              }
            }
          }
        }
      }
    }
  }
  JOINT RightHip
  {
    OFFSET -9.412 3.9771 -0.7758
    CHANNELS 3 Zrotation Xrotation Yrotation
    JOINT RightKnee
    {
      OFFSET -0.7531 -40.938 0
      CHANNELS 3 Zrotation Xrotation Yrotation
      JOINT RightAnkle
      {
        OFFSET 0 -40.1986 0
        CHANNELS 3 Zrotation Xrotation Yrotation
        JOINT RightToe
        {
          OFFSET 0 -4.4182 9.239
          CHANNELS 3 Zrotation Xrotation Yrotation
          End Site
          {
            OFFSET 0 0 6.1981
          }
        }
      }
    }
  }
  JOINT LeftHip
  {
    OFFSET 9.4119 3.9773 -0.7758
    CHANNELS 3 Zrotation Xrotation Yrotation
    JOINT LeftKnee
    {
      OFFSET 0.7532 -40.9383 0
      CHANNELS 3 Zrotation Xrotation Yrotation
      JOINT LeftAnkle
      {
        OFFSET 0 -40.1986 0
        CHANNELS 3 Zrotation Xrotation Yrotation
        JOINT LeftToe
        {
          OFFSET 0 -4.4182 9.239
          CHANNELS 3 Zrotation Xrotation Yrotation
          End Site
          {
            OFFSET 0 0 6.1981
          }
        }
      }
    }
  }
}
MOTION
Frames:	6
Frame Time:	0.0333333
-0.569013 -3.44224 53.2375 -0.348423 -80.7615 -175.618 3.66116 1.26506 3.00742 7.25393 2.71785 5.93036 7.25395 2.71788 5.93037 -10.1505 9.83579 23.7502 -6.02429 4.96816 36.242 4.27771 -38.6373 14.3828 -36.6011 63.8653 22.4808 -24.7104 -58.8062 -37.7505 11.3798 6.08573 76.4747 -1.46557e-006 1.58115e-006 -1.40043e-005 1.27222e-014 0 7.95139e-016 9.54166e-015 3.18055e-015 7.95139e-016 -1.46557e-006 1.58115e-006 -1.40043e-005 -0.0127766 0.00231356 9.07428e-005 2.71838e-006 -2.78216e-006 3.05154e-006 -1.46557e-006 1.58115e-006 -1.40043e-005 -0.0160061 0.0029847 0.000868537 3.18055e-015 1.59028e-015 -3.18055e-015 -1.46557e-006 1.58115e-006 -1.40043e-005 -0.0126276 0.003117 0.0028409 7.42158e-006 2.69185e-006 2.15239e-006 -1.46557e-006 1.58115e-006 -1.40043e-005 1.27222e-014 0 7.95139e-016 9.54166e-015 3.18055e-015 7.95139e-016 -31.7399 -41.0593 -23.2616 -34.2757 -36.8886 -11.3309 139.651 -49.6843 125.251 -39.2125 29.1239 6.54705 -7.95139e-016 1.59028e-015 3.97569e-016 1.10348e-032 1.59028e-015 -3.97569e-016 -1.59028e-015 3.18055e-015 -0 -7.95139e-016 1.59028e-015 3.97569e-016 0.0129786 0.00231852 -8.5124e-005 -8.82781e-032 3.18055e-015 1.59028e-015 -7.95139e-016 1.59028e-015 3.97569e-016 0.0163249 0.00302221 -0.000872414 -2.09661e-031 -3.18055e-015 -3.77691e-015 -7.95139e-016 1.59028e-015 3.97569e-016 0.0145762 0.00366252 -0.00325358 -2.04016e-006 8.84091e-007 3.94429e-006 -7.95139e-016 1.59028e-015 3.97569e-016 1.10348e-032 1.59028e-015 -3.97569e-016 -1.59028e-015 3.18055e-015 -0 -5.88012 -3.51081 0.818701 4.35102 28.8024 -4.207 -15.5025 30.8966 11.0656 5.4462e-007 3.88609e-006 6.4001e-007 5.18087 -0.772551 0.748887 2.44201 22.0994 -1.2734 14.5944 15.7027 1.40921 -5.65701e-007 -8.59546e-006 -2.23497e-006 
-0.567417 -3.43656 53.241 -0.344464 -80.806 -175.639 3.66118 1.26506 3.00743 7.25395 2.71788 5.93038 7.25398 2.71786 5.9304 -10.1506 9.83576 23.7501 -6.0242 4.96811 36.5221 4.21037 -38.5767 14.2695 -35.8791 63.3439 21.4826 -24.2245 -58.1331 -37.2923 11.0734 6.12834 75.6214 8.01344e-006 -4.2143e-006 5.66227e-006 2.03157e-006 -5.45413e-006 -3.97276e-006 1.03553e-005 -4.86891e-007 3.36528e-006 8.01344e-006 -4.2143e-006 5.66227e-006 -0.0128579 0.00233298 8.21138e-005 5.90927e-007 9.90625e-007 -4.11349e-007 8.01344e-006 -4.2143e-006 5.66227e-006 -0.0160273 0.00299329 0.000848306 5.92343e-006 1.65802e-006 2.10952e-006 8.01344e-006 -4.2143e-006 5.66227e-006 -0.0126394 0.00314136 0.00283389 3.92166e-006 3.6145e-006 9.84496e-006 8.01344e-006 -4.2143e-006 5.66227e-006 2.03157e-006 -5.45413e-006 -3.97276e-006 1.03553e-005 -4.86891e-007 3.36528e-006 -31.6627 -40.9721 -23.154 -34.287 -36.8829 -11.3462 139.635 -49.7014 125.237 -39.2125 29.1239 6.54709 -7.95139e-016 1.59028e-015 2.5842e-015 -1.0812e-006 -2.2655e-006 9.68986e-006 -0 0 9.93923e-016 -7.95139e-016 1.59028e-015 2.5842e-015 0.0129399 0.00231725 -9.19448e-005 7.95139e-016 -1.59028e-015 1.39149e-015 -7.95139e-016 1.59028e-015 2.5842e-015 0.0163479 0.00304078 -0.000874683 7.95139e-016 -1.43125e-014 3.97569e-016 -7.95139e-016 1.59028e-015 2.5842e-015 0.0145806 0.00369372 -0.00325849 -7.95139e-016 0 9.93923e-016 -7.95139e-016 1.59028e-015 2.5842e-015 -1.0812e-006 -2.2655e-006 9.68986e-006 -0 0 9.93923e-016 -5.88767 -3.51524 0.822673 4.35104 28.8027 -4.20707 -15.5026 30.8964 11.0655 -5.44172e-007 -3.88422e-006 -6.40407e-007 5.18083 -0.772919 0.748846 2.44203 22.0992 -1.27342 14.5945 15.7033 1.40912 -3.53113e-031 6.36111e-015 3.18055e-015 
-0.565846 -3.43097 53.2446 -0.340683 -80.85 -175.659 3.66118 1.2651 3.00742 7.25397 2.71787 5.93039 7.25398 2.71789 5.9304 -10.1506 9.83576 23.7501 -6.02411 4.96807 36.8022 4.14332 -38.5159 14.1564 -35.1623 62.8168 20.4919 -23.7657 -57.4536 -36.8491 10.7677 6.17555 74.7682 1.59028e-014 -1.59028e-015 -2.38542e-015 2.22639e-014 -9.54166e-015 -4.77083e-015 1.27222e-014 -4.77083e-015 -1.59028e-015 1.59028e-014 -1.59028e-015 -2.38542e-015 -0.0128175 0.00231737 7.07899e-005 -6.36111e-015 3.18055e-015 1.59028e-015 1.59028e-014 -1.59028e-015 -2.38542e-015 -0.0160332 0.00299013 0.000842288 -9.54166e-015 0 1.59028e-015 1.59028e-014 -1.59028e-015 -2.38542e-015 -0.0125819 0.00312646 0.0028204 -3.18055e-015 -4.77083e-015 7.95139e-016 1.59028e-014 -1.59028e-015 -2.38542e-015 2.22639e-014 -9.54166e-015 -4.77083e-015 1.27222e-014 -4.77083e-015 -1.59028e-015 -31.5858 -40.8849 -23.0467 -34.2984 -36.8771 -11.3616 139.619 -49.7186 125.223 -39.2125 29.1239 6.54705 -2.38542e-015 -1.59028e-015 -5.96354e-016 1.0118e-006 1.1286e-006 1.47692e-006 -7.95139e-016 0 1.59028e-015 -2.38542e-015 -1.59028e-015 -5.96354e-016 0.0129321 0.0023065 -9.43629e-005 7.95139e-016 3.18055e-015 -3.97569e-016 -2.38542e-015 -1.59028e-015 -5.96354e-016 0.0163408 0.00303181 -0.000876939 -0 0 3.97569e-016 -2.38542e-015 -1.59028e-015 -5.96354e-016 0.0146117 0.00368629 -0.00326957 -1.59028e-015 1.59028e-015 -3.97569e-016 -2.38542e-015 -1.59028e-015 -5.96354e-016 1.0118e-006 1.1286e-006 1.47692e-006 -7.95139e-016 0 1.59028e-015 -5.89518 -3.51973 0.826638 4.35102 28.8031 -4.20714 -15.5026 30.8961 11.0655 1.22143e-006 3.96185e-006 -1.12791e-006 5.18082 -0.773467 0.748842 2.44198 22.0991 -1.27346 14.5946 15.704 1.40899 4.4136e-006 -1.94007e-006 1.88503e-006 
-0.564299 -3.42545 53.248 -0.337026 -80.8933 -175.678 3.66117 1.2651 3.00742 7.25394 2.71787 5.93037 7.25397 2.7179 5.93039 -10.1506 9.83576 23.7502 -6.02407 4.96798 37.0824 4.07658 -38.455 14.0436 -34.489 62.2842 19.5427 -23.3212 -56.774 -36.4253 10.4625 6.22731 73.915 -2.67009e-006 -3.21472e-006 6.57921e-007 3.18055e-015 1.59028e-015 -1.59028e-015 3.18055e-015 3.18055e-015 -0 -2.67009e-006 -3.21472e-006 6.57921e-007 -0.0127994 0.00232413 8.99277e-005 1.78804e-005 -1.52308e-006 7.93947e-006 -2.67009e-006 -3.21472e-006 6.57921e-007 -0.0160352 0.00299544 0.000864625 3.18055e-015 -3.18055e-015 -3.18055e-015 -2.67009e-006 -3.21472e-006 6.57921e-007 -0.0125988 0.00313023 0.0028429 -4.39009e-006 -4.46976e-007 -1.6053e-006 -2.67009e-006 -3.21472e-006 6.57921e-007 3.18055e-015 1.59028e-015 -1.59028e-015 3.18055e-015 3.18055e-015 -0 -31.509 -40.7976 -22.9395 -34.3098 -36.8713 -11.377 139.602 -49.7357 125.21 -39.2125 29.1239 6.54703 -1.59028e-015 -1.59028e-015 5.96354e-016 3.14452e-006 -1.32781e-006 -7.17928e-006 0 0 -1.19271e-015 -1.59028e-015 -1.59028e-015 5.96354e-016 0.0129466 0.00231846 -8.9025e-005 -7.95139e-016 -1.43125e-014 -1.98785e-016 -1.59028e-015 -1.59028e-015 5.96354e-016 0.016339 0.0030249 -0.000880213 2.38542e-015 -1.59028e-015 1.98785e-016 -1.59028e-015 -1.59028e-015 5.96354e-016 0.0145917 0.00368162 -0.00327503 7.95139e-016 -1.27222e-014 -9.93923e-016 -1.59028e-015 -1.59028e-015 5.96354e-016 3.14452e-006 -1.32781e-006 -7.17928e-006 0 0 -1.19271e-015 -5.90279 -3.52348 0.830579 4.35105 28.8028 -4.20713 -15.5026 30.8958 11.0654 5.43294e-007 4.36391e-006 6.41179e-007 5.18083 -0.772942 0.748846 2.44191 22.0978 -1.27347 14.5946 15.7047 1.40886 -1.24215e-006 6.6547e-007 1.49615e-006 
-0.56277 -3.42 53.2514 -0.333268 -80.9361 -175.698 3.66117 1.26506 3.00742 7.25395 2.71787 5.93037 7.25397 2.71788 5.93039 -10.1506 9.83576 23.7502 -6.02398 4.96792 37.3625 4.00998 -38.3941 13.9309 -33.8369 61.7465 18.6151 -22.8967 -56.0912 -36.0173 10.1582 6.28362 73.0621 6.36111e-015 -1.59028e-015 7.95139e-016 3.06079e-006 -5.07976e-006 1.83466e-006 7.65624e-006 -5.69859e-006 -4.53752e-006 6.36111e-015 -1.59028e-015 7.95139e-016 -0.0128047 0.00231871 7.76321e-005 5.76505e-006 -3.45273e-006 1.09833e-005 6.36111e-015 -1.59028e-015 7.95139e-016 -0.0160732 0.00298891 0.000849131 -1.81538e-006 6.11088e-006 -3.29083e-006 6.36111e-015 -1.59028e-015 7.95139e-016 -0.0125848 0.00311212 0.00282494 3.18055e-015 -9.54166e-015 8.74653e-015 6.36111e-015 -1.59028e-015 7.95139e-016 3.06079e-006 -5.07976e-006 1.83466e-006 7.65624e-006 -5.69859e-006 -4.53752e-006 -31.4327 -40.7101 -22.8328 -34.3213 -36.8655 -11.3924 139.586 -49.7527 125.196 -39.2125 29.1239 6.54706 1.59028e-015 -3.18055e-015 -3.97569e-016 7.95139e-016 0 -1.39149e-015 7.95139e-016 -1.59028e-015 -0 1.59028e-015 -3.18055e-015 -3.97569e-016 0.0129329 0.0023198 -8.77536e-005 -7.95139e-016 -1.59028e-015 -3.57812e-015 1.59028e-015 -3.18055e-015 -3.97569e-016 0.0163407 0.00302935 -0.000869239 9.37955e-032 -1.59028e-015 3.37934e-015 1.59028e-015 -3.18055e-015 -3.97569e-016 0.0145831 0.00368711 -0.00325536 8.27607e-032 -7.95139e-015 5.96354e-016 1.59028e-015 -3.18055e-015 -3.97569e-016 7.95139e-016 0 -1.39149e-015 7.95139e-016 -1.59028e-015 -0 -5.9104 -3.52723 0.834525 4.35108 28.8024 -4.20711 -15.5026 30.8956 11.0654 -1.76609e-006 6.54711e-006 4.84647e-007 5.18078 -0.773466 0.748803 2.44191 22.0977 -1.27349 14.5947 15.7053 1.40875 -8.82781e-032 3.18055e-015 1.59028e-015 
-0.561273 -3.41463 53.2548 -0.330061 -80.9782 -175.717 3.66117 1.26506 3.00742 7.25395 2.71788 5.93037 7.25396 2.71787 5.93038 -10.1506 9.83577 23.7502 -6.02389 4.96789 37.6427 3.94361 -38.333 13.8184 -33.212 61.204 17.7144 -22.489 -55.4066 -35.6251 9.85472 6.34454 72.2095 7.73691e-006 8.77776e-006 6.26863e-006 3.04246e-006 -1.0674e-006 1.8127e-006 9.54166e-015 1.59028e-015 -1.59028e-015 7.73691e-006 8.77776e-006 6.26863e-006 -0.0127947 0.00231437 8.31684e-005 -9.54166e-015 0 -3.18055e-015 7.73691e-006 8.77776e-006 6.26863e-006 -0.0160576 0.00299056 0.000850487 6.36111e-015 -1.59028e-015 2.38542e-015 7.73691e-006 8.77776e-006 6.26863e-006 -0.0125593 0.00310208 0.00281118 1.27222e-014 2.02432e-006 7.95139e-016 7.73691e-006 8.77776e-006 6.26863e-006 3.04246e-006 -1.0674e-006 1.8127e-006 9.54166e-015 1.59028e-015 -1.59028e-015 -31.3566 -40.6226 -22.7263 -34.3328 -36.8597 -11.4078 139.57 -49.7699 125.182 -39.2125 29.1239 6.54704 -1.59028e-015 -1.59028e-014 1.78906e-015 7.95139e-016 -1.43125e-014 2.78299e-015 8.27607e-031 -1.59028e-014 2.98177e-015 -1.59028e-015 -1.59028e-014 1.78906e-015 0.0129357 0.00230782 -8.22616e-005 -7.95139e-016 -1.59028e-015 -9.93923e-016 -1.59028e-015 -1.59028e-014 1.78906e-015 0.0163154 0.0030202 -0.000873051 -1.59028e-015 -1.59028e-015 1.98785e-016 -1.59028e-015 -1.59028e-014 1.78906e-015 0.0145641 0.00366531 -0.00326162 -3.31043e-032 1.59028e-015 1.19271e-015 -1.59028e-015 -1.59028e-014 1.78906e-015 7.95139e-016 -1.43125e-014 2.78299e-015 8.27607e-031 -1.59028e-014 2.98177e-015 -5.91791 -3.53188 0.838482 4.35104 28.8029 -4.20714 -15.5026 30.8955 11.0654 5.42439e-007 3.90065e-006 6.41928e-007 5.18072 -0.773994 0.748788 2.44195 22.0975 -1.27355 14.5947 15.7061 1.4086 6.30933e-007 -4.20457e-007 -1.11234e-006 
